<?xml version="1.0" encoding="utf-8" ?>
<svg xmlns="http://www.w3.org/2000/svg" xmlns:xlink="http://www.w3.org/1999/xlink" width="436" height="436">
	<path fill="#03A9FF" transform="scale(0.851721 0.851721)" d="M0 0L0 512L512 512L512 0L0 0Z"/>
	<path fill="#00F4C5" transform="scale(0.851721 0.851721)" d="M190.98 280.217L196.299 280.206C198.624 280.196 200.798 280.226 201.006 277.184C201.147 275.116 198.033 273.604 196.593 272.567L190.371 268.019C167.063 250.18 152.44 222.432 148.84 193.51C145.631 167.731 151.561 142.147 165.39 120.108L168.83 115.012C169.572 114.001 170.293 112.974 171.261 112.165C171.908 113.948 173.246 115.496 174.274 117.082L177.587 122.767C183.542 133.788 181.141 137.269 176.434 148.384C159.74 187.796 177.504 235.953 214.303 257.033L218.886 259.552C225.179 263.019 226.082 266.208 226.076 272.643L226.048 280.185C226.625 280.305 227.286 280.236 227.88 280.235L245.022 280.225C245.111 279.281 245.049 278.28 245.05 277.331L245.07 194.335C245.069 193.119 245.032 192.701 244.454 191.649L219.078 147.182L192.984 102.563C192.247 101.329 191.532 100.041 190.624 98.9255L190.519 98.7982C194.42 95.5594 198.686 92.6129 202.977 89.9116L209.161 86.1205L256.067 166.39C257.281 163.718 258.878 161.27 260.386 158.762L291.946 104.101L302.886 85.7669C304.272 87.0039 306.175 87.9725 307.725 89.0221C312.348 92.1526 317.097 95.1717 321.357 98.7914C319.39 101.534 317.789 104.636 316.06 107.535L310.04 117.454L268.681 189.74C267.501 191.988 267.148 192.18 267.164 194.72L267.259 280.195L285.878 280.226L285.868 273.761C285.864 265.309 287.084 262.55 294.931 258.525L299.928 255.736C302.547 254.125 304.954 252.283 307.362 250.379C338.75 225.567 350.515 184.047 335.05 147.259C333.583 143.769 331.388 139.987 330.97 136.194C330.118 128.466 336.337 118.163 341.197 112.022C343.762 115.926 346.46 119.658 348.77 123.733C377.189 173.873 364.872 236.289 317.921 270.581C316.158 271.869 311.017 274.38 310.959 276.733C310.867 280.475 313.317 280.213 316.081 280.218L340.193 280.199L340.313 302.215C339.625 302.419 338.495 302.281 337.763 302.283L171.686 302.313L171.769 280.205L190.98 280.217Z"/>
	<path fill="#00F7DD" transform="scale(0.851721 0.851721)" d="M78.6749 427.039L78.6749 354.571L65 354.571L65 346.187L103.23 346.187L103.23 354.571L89.9543 354.571L89.9543 427.039L78.6749 427.039ZM104.727 427.039L104.727 369.344L115.408 369.344L115.408 377.529C117.537 374.002 119.667 371.64 121.796 370.442C123.925 369.244 126.055 368.646 128.184 368.646C128.45 368.646 128.7 368.646 128.933 368.646C129.166 368.646 129.482 368.679 129.881 368.745L129.881 380.524C129.083 380.191 128.168 379.908 127.136 379.675C126.105 379.442 125.057 379.326 123.992 379.326C122.328 379.326 120.814 379.709 119.45 380.474C118.086 381.239 116.738 382.72 115.408 384.916L115.408 427.039L104.727 427.039ZM152.041 427.837C147.782 427.837 144.421 426.972 141.959 425.242C139.497 423.512 137.75 421.05 136.719 417.855C135.687 414.661 135.171 410.901 135.171 406.576L135.171 389.807C135.171 385.481 135.687 381.722 136.719 378.527C137.75 375.333 139.497 372.871 141.959 371.141C144.421 369.411 147.782 368.546 152.041 368.546C156.299 368.546 159.643 369.411 162.072 371.141C164.501 372.871 166.231 375.333 167.263 378.527C168.294 381.722 168.81 385.481 168.81 389.807L168.81 406.576C168.81 410.901 168.294 414.661 167.263 417.855C166.231 421.05 164.501 423.512 162.072 425.242C159.643 426.972 156.299 427.837 152.041 427.837ZM152.041 419.952C154.103 419.952 155.551 419.353 156.383 418.155C157.214 416.957 157.713 415.377 157.88 413.414C158.046 411.45 158.129 409.404 158.129 407.275L158.129 389.208C158.129 387.012 158.046 384.949 157.88 383.019C157.713 381.089 157.214 379.509 156.383 378.278C155.551 377.047 154.103 376.431 152.041 376.431C149.978 376.431 148.514 377.047 147.649 378.278C146.783 379.509 146.268 381.089 146.101 383.019C145.935 384.949 145.852 387.012 145.852 389.208L145.852 407.275C145.852 409.404 145.935 411.45 146.101 413.414C146.268 415.377 146.783 416.957 147.649 418.155C148.514 419.353 149.978 419.952 152.041 419.952ZM177.693 441.512L177.693 433.327C180.289 433.327 182.352 433.211 183.882 432.978C185.412 432.745 186.51 432.312 187.176 431.68C187.842 431.048 188.174 430.166 188.174 429.035C188.174 428.436 187.942 427.105 187.476 425.042C187.009 422.979 186.51 420.783 185.978 418.454L174.4 369.344L185.18 369.344L192.966 412.465L200.452 369.344L211.232 369.344L197.457 430.233C196.858 433.028 195.76 435.24 194.163 436.871C192.566 438.501 190.52 439.682 188.025 440.414C185.529 441.146 182.518 441.512 178.991 441.512L177.693 441.512ZM262.139 427.937C256.682 427.937 252.324 426.872 249.063 424.743C245.802 422.613 243.473 419.569 242.076 415.609C240.678 411.65 239.979 407.009 239.979 401.685L239.979 371.041C239.979 365.718 240.695 361.143 242.125 357.316C243.556 353.49 245.886 350.562 249.113 348.532C252.34 346.503 256.682 345.488 262.139 345.488C267.596 345.488 271.921 346.519 275.115 348.582C278.309 350.645 280.622 353.573 282.052 357.366C283.483 361.159 284.198 365.718 284.198 371.041L284.198 401.785C284.198 407.042 283.483 411.633 282.052 415.56C280.622 419.486 278.309 422.53 275.115 424.693C271.921 426.856 267.596 427.937 262.139 427.937ZM262.139 419.053C265.133 419.053 267.396 418.438 268.926 417.207C270.457 415.976 271.489 414.245 272.021 412.016C272.553 409.787 272.819 407.175 272.819 404.18L272.819 368.745C272.819 365.751 272.553 363.172 272.021 361.01C271.489 358.847 270.457 357.183 268.926 356.019C267.396 354.854 265.133 354.272 262.139 354.272C259.144 354.272 256.865 354.854 255.301 356.019C253.737 357.183 252.689 358.847 252.157 361.01C251.625 363.172 251.359 365.751 251.359 368.745L251.359 404.18C251.359 407.175 251.625 409.787 252.157 412.016C252.689 414.245 253.737 415.976 255.301 417.207C256.865 418.438 259.144 419.053 262.139 419.053ZM302.664 427.837C300.402 427.837 298.639 427.238 297.374 426.04C296.11 424.843 295.228 423.345 294.729 421.549C294.23 419.752 293.98 417.922 293.98 416.059L293.98 369.344L304.661 369.344L304.661 412.865C304.661 414.927 304.96 416.541 305.559 417.706C306.158 418.87 307.389 419.452 309.252 419.452C310.45 419.452 311.698 419.103 312.996 418.404C314.293 417.706 315.541 416.857 316.739 415.859L316.739 369.344L327.419 369.344L327.419 427.039L316.739 427.039L316.739 421.349C314.875 423.146 312.763 424.676 310.4 425.941C308.038 427.205 305.459 427.837 302.664 427.837ZM358.961 427.837C356.898 427.837 355.051 427.321 353.421 426.29C351.791 425.259 350.377 424.111 349.179 422.846L349.179 427.039L338.499 427.039L338.499 346.187L349.179 346.187L349.179 373.936C350.444 372.472 351.957 371.208 353.721 370.143C355.485 369.078 357.597 368.546 360.059 368.546C363.054 368.546 365.432 369.328 367.196 370.891C368.96 372.455 370.274 374.418 371.139 376.781C372.004 379.143 372.569 381.539 372.836 383.967C373.102 386.396 373.235 388.476 373.235 390.206L373.235 404.18C373.235 408.24 372.836 412.083 372.037 415.709C371.239 419.336 369.808 422.264 367.745 424.493C365.682 426.722 362.754 427.837 358.961 427.837ZM356.765 419.452C358.629 419.452 359.959 418.77 360.758 417.406C361.557 416.042 362.056 414.195 362.255 411.866C362.455 409.537 362.555 406.975 362.555 404.18L362.555 390.206C362.555 387.81 362.422 385.598 362.155 383.568C361.889 381.539 361.324 379.925 360.459 378.727C359.593 377.529 358.23 376.93 356.366 376.93C354.969 376.93 353.654 377.23 352.423 377.829C351.193 378.428 350.111 379.093 349.179 379.825L349.179 416.857C350.111 417.589 351.226 418.205 352.523 418.704C353.821 419.203 355.235 419.452 356.765 419.452ZM383.217 427.039L383.217 369.344L393.897 369.344L393.897 377.529C396.026 374.002 398.157 371.64 400.286 370.442C402.415 369.244 404.545 368.646 406.674 368.646C406.94 368.646 407.19 368.646 407.423 368.646C407.655 368.646 407.972 368.679 408.371 368.745L408.371 380.524C407.572 380.191 406.657 379.908 405.626 379.675C404.595 379.442 403.547 379.326 402.482 379.326C400.818 379.326 399.304 379.709 397.94 380.474C396.575 381.239 395.228 382.72 393.897 384.916L393.897 427.039L383.217 427.039ZM430.63 427.837C426.105 427.837 422.612 426.955 420.149 425.192C417.687 423.428 415.974 420.833 415.009 417.406C414.043 413.979 413.561 409.77 413.561 404.779L413.561 391.603C413.561 386.48 414.06 382.221 415.059 378.827C416.057 375.433 417.804 372.871 420.299 371.141C422.794 369.411 426.238 368.546 430.63 368.546C435.488 368.546 439.065 369.544 441.36 371.54C443.656 373.537 445.17 376.415 445.902 380.174C446.634 383.934 447 388.443 447 393.7L447 398.391L424.242 398.391L424.242 409.97C424.242 412.299 424.458 414.195 424.891 415.659C425.323 417.123 426.021 418.205 426.987 418.903C427.952 419.602 429.2 419.952 430.73 419.952C432.327 419.952 433.542 419.569 434.373 418.804C435.205 418.038 435.771 416.94 436.07 415.51C436.369 414.079 436.519 412.399 436.519 410.469L436.519 406.975L446.9 406.975L446.9 409.171C446.9 414.961 445.669 419.519 443.207 422.846C440.744 426.173 436.552 427.837 430.63 427.837ZM424.242 392.602L436.519 392.602L436.519 387.411C436.519 385.016 436.386 383.003 436.12 381.372C435.853 379.742 435.304 378.511 434.473 377.679C433.641 376.847 432.327 376.431 430.53 376.431C428.8 376.431 427.486 376.831 426.587 377.629C425.689 378.428 425.073 379.775 424.741 381.672C424.408 383.568 424.242 386.18 424.242 389.507L424.242 392.602Z"/>
</svg>
